<?xml version="1.0" standalone="no"?><!DOCTYPE svg PUBLIC "-//W3C//DTD SVG 1.1//EN" "http://www.w3.org/Graphics/SVG/1.1/DTD/svg11.dtd"><svg t="1602244248001" class="icon" viewBox="0 0 1024 1024" version="1.1" xmlns="http://www.w3.org/2000/svg" p-id="2691" xmlns:xlink="http://www.w3.org/1999/xlink" width="200" height="200"><defs><style type="text/css"></style></defs><path d="M506.725838 762.186878c-133.38023 0-241.924824-108.544594-241.924823-241.924824s108.544594-241.924824 241.924823-241.924823S748.650662 386.881824 748.650662 520.262054 640.106068 762.186878 506.725838 762.186878z m0-453.967726c-116.955068 0-212.141849 95.186781-212.141849 212.141849s95.186781 212.141849 212.141849 212.14185 212.141849-95.186781 212.14185-212.14185-95.186781-212.141849-212.14185-212.141849z" fill="#383F51" p-id="2692"></path><path d="M423.511615 459.805585m-22.658808 0a22.658808 22.658808 0 1 0 45.317615 0 22.658808 22.658808 0 1 0-45.317615 0Z" fill="#383F51" p-id="2693"></path><path d="M589.940062 459.805585m-22.658808 0a22.658808 22.658808 0 1 0 45.317616 0 22.658808 22.658808 0 1 0-45.317616 0Z" fill="#383F51" p-id="2694"></path><path d="M339.802657 381.439753c-1.484201 0-3.06735-0.197894-4.650497-0.692628-27.012465-8.806261-45.119722-33.740845-45.119722-62.138564 0-36.01662 29.28824-65.30486 65.30486-65.30486 35.620833 0 64.216446 27.804039 65.205914 63.424872 0.197894 8.212581-6.233646 15.039907-14.446227 15.336747-8.311528 0.197894-15.039907-6.233646-15.336747-14.446226-0.494734-19.294618-16.128322-34.433472-35.521886-34.433472-19.591458 0-35.521886 15.930428-35.521886 35.521886 0 15.435694 9.894676 29.090347 24.637742 33.839791 7.816794 2.572616 12.071504 10.98309 9.597836 18.799884-1.978935 6.134699-7.816794 10.092569-14.149387 10.09257z" fill="#383F51" p-id="2695"></path><path d="M675.825848 383.814475c-8.113634 0-14.743067-6.530486-14.842014-14.64412-0.098947-8.212581 6.431539-14.94096 14.644121-15.138854 19.195671-0.29684 34.829259-16.227268 34.829258-35.521887 0-19.591458-15.930428-35.521886-35.521886-35.521886-19.591458 0-35.521886 15.930428-35.521886 35.521886 0 1.978935 0.197894 3.858924 0.494734 5.738912 1.286308 8.113634-4.254711 15.732535-12.368345 17.018843-8.113634 1.286308-15.732535-4.254711-17.018842-12.368345-0.593681-3.562083-0.890521-7.02522-0.890521-10.38941 0-36.01662 29.28824-65.30486 65.30486-65.30486s65.30486 29.28824 65.304861 65.30486c0 35.422939-28.793507 64.71118-64.216446 65.205914-0.098947 0.098947-0.098947 0.098947-0.197894 0.098947z" fill="#383F51" p-id="2696"></path><path d="M331.78797 679.962122c-3.463137 0-6.926273-1.187361-9.696782-3.66103-6.233646-5.343125-6.926273-14.743067-1.484202-20.976713 47.791284-55.212291 116.856121-86.776307 189.483042-86.776307 69.658518 0 136.74442 29.387187 184.04097 80.740555 5.541018 6.035752 5.145231 15.435694-0.89052 21.075659-6.035752 5.541018-15.435694 5.145231-20.976713-0.89052-41.656585-45.218668-100.826747-71.142719-162.173737-71.14272-64.018553 0-124.870809 27.902986-167.022128 76.485845-2.968403 3.36419-7.124167 5.145231-11.27993 5.145231z" fill="#383F51" p-id="2697"></path><path d="M463.486105 537.577737l22.460914 45.020775c8.509421 17.117789 32.850324 17.117789 41.458692 0l22.460914-45.020775c7.717847-15.435694-3.463137-33.542951-20.679872-33.542951h-45.020775c-17.117789 0-28.298773 18.107257-20.679873 33.542951z" fill="#383F51" p-id="2698"></path><path d="M506.725838 650.871775c-8.212581 0-14.842014-6.629433-14.842013-14.842014v-59.961735c0-8.212581 6.629433-14.842014 14.842013-14.842014s14.842014 6.629433 14.842014 14.842014v59.961735c0 8.113634-6.629433 14.842014-14.842014 14.842014z" fill="#383F51" p-id="2699"></path><path d="M670.383776 1024c-51.749155 0-98.254131-25.33037-126.750797-64.909073-18.30515 20.580926-44.921828 33.542951-74.506909 33.641897h-0.29684c-35.620833 0-67.976423-19.591458-85.786839-48.780751-23.747222 19.195671-54.61861 29.387187-87.369988 26.616678-59.170161-5.046285-106.961446-53.530196-111.117209-112.799305-0.494734-7.124167-0.395787-14.248333 0.395787-21.174606-15.237801 3.759977-31.069282 5.145231-47.197604 3.95787C64.136989 835.110639 5.065775 775.445744 0.31633 701.829355c-3.36419-52.441782 20.284085-101.618321 63.226979-131.698135 13.456759-9.399942 32.05875-6.134699 41.458691 7.322061 9.399942 13.456759 6.134699 32.05875-7.32206 41.458691-25.825104 18.107257-39.97449 47.692337-37.995555 79.157407 2.770509 43.437627 38.985023 80.047927 82.42265 83.214223 27.210358 1.978935 53.431249-8.212581 72.132186-28.199826 5.541018-5.936805 13.258866-9.300995 21.3725-9.399942 8.212581 0.098947 15.930428 3.166296 21.570393 8.905208 2.374722 2.473669 4.848391 4.848391 7.421007 7.223114 5.936805 5.738912 9.300995 13.555706 9.202049 21.867233-0.098947 8.212581-3.562083 16.029375-9.696783 21.570394-14.149386 12.962025-21.471447 31.366122-20.185138 50.462846 2.077882 29.782974 27.012465 55.113344 56.696492 57.68596 31.168229 2.671562 58.873321-17.414629 66.096435-47.59339 1.879988-8.014687 7.02522-14.842014 14.149386-18.898831 7.124167-4.056817 15.633588-5.046285 23.549329-2.671563l5.145231 1.484202c7.6189 2.176829 14.05044 7.421007 17.810416 14.34728 3.759977 7.02522 4.650498 15.237801 2.374723 22.757754-1.583148 5.343125-2.077882 10.785197-1.484202 16.227268 2.176829 19.987245 20.383032 36.214513 40.469224 36.214514h0.098947c22.361967-0.098947 40.568171-18.30515 40.568171-40.667118 0-1.385255-0.098947-2.671562-0.197894-3.95787-0.791574-7.915741 1.682095-15.831481 6.72838-21.96618 5.046285-6.134699 12.467292-9.993623 20.383032-10.587304l6.035752-0.494733c16.029375-1.682095 30.376655 9.795729 32.454537 25.62721 6.431539 47.791284 47.29655 83.214224 95.483622 83.214224h1.978935c16.623055-0.29684 29.980868 12.764132 30.376655 29.189293 0.29684 16.425162-12.665185 29.980868-29.189294 30.376655h-3.06735z" fill="#383F51" p-id="2700"></path><path d="M763.789516 981.947628c-7.124167 0-14.248333-2.473669-19.888298-7.618901-12.170451-10.98309-13.159919-29.782974-2.176829-42.052372 12.467292-13.852546 20.481979-30.574548 23.351435-48.483911 3.463137-22.164074-0.494734-43.932361-11.477824-63.128032-13.852546-24.143009-10.488356-53.827036 8.311528-73.913228 18.00831-19.096724 45.020775-24.934583 69.163784-15.138854 12.170451 4.947338 25.132477 7.124167 38.391342 6.332592 43.932361-2.374722 80.938448-38.589236 84.203691-82.422649 2.968403-40.271331-20.383032-76.782684-58.180694-90.734178-23.450382-8.707315-39.182916-31.465069-39.083969-56.894385l-0.098947-3.858924c-0.197894-13.258866 8.410474-25.03353 21.075659-28.892453 29.387187-9.004155 47.692337-37.797662 43.437627-68.570104-3.06735-22.263021-18.898831-41.656585-40.469224-49.572326-11.477824-4.155764-22.658808-4.947338-34.532418-2.473669-12.863079 2.770509-26.022997-3.265243-32.35559-14.743067-1.187361-2.176829-2.473669-4.353657-3.759977-6.530486l-0.890521-1.484201c-4.254711-7.223113-5.244178-15.930428-2.671562-23.846169 2.473669-8.014687 8.212581-14.545173 15.831481-18.107256 13.555706-6.332593 26.022997-21.96618 23.153541-42.745-2.275775-16.820949-15.930428-31.168229-32.553483-34.136631-19.690405-3.463137-34.334525 6.629433-41.557639 17.315682-4.650498 6.926273-12.071504 11.576771-20.383032 12.764132s-16.722002-1.088414-23.153541-6.431539l-2.077882-1.583148c-8.014687-6.431539-12.071504-16.425162-10.98309-26.616678 0.593681-5.541018 0.890521-10.488356 0.890521-15.138854 0-42.448159-19.591458-81.334235-53.629143-106.664606-15.930428-11.774664-33.740845-19.789352-53.035463-23.648275-33.147164-6.629433-68.767997-0.098947-97.36361 18.30515-24.044062 15.336748-42.745 38.490289-52.837569 65.106967-3.66103 9.597836-11.873611 16.623055-21.867233 18.601991-6.72838 1.385255-13.357812 2.968403-19.888298 4.749444-8.707315 2.275775-17.909363 0.593681-25.231424-4.749444-7.223113-5.343125-11.774664-13.555706-12.170451-22.559861-0.593681-11.27993-5.837859-21.96618-14.64412-29.28824-8.806261-7.32206-19.987245-10.587303-31.564016-9.004155-16.820949 2.176829-31.267176 15.831481-34.334525 32.355589-2.176829 11.576771 0.494734 23.054595 7.421007 32.256644 6.827326 9.103102 9.696782 20.185139 8.014687 31.267175-1.583148 10.98309-7.421007 20.679872-16.326215 27.309305-10.587303 7.915741-24.241956 10.290463-36.610301 6.629433-12.467292-3.66103-22.263021-12.665185-26.814571-24.736689-10.191516-26.913518-37.401875-43.33868-66.195381-39.875544-27.705092 3.36419-50.858634 26.715625-54.02493 54.420717-2.077882 18.00831 3.36419 35.323993 15.138854 48.681805 11.675717 13.258866 28.496666 20.976713 46.109189 21.07566 10.488356 0.098947 20.185139 5.738912 25.429317 14.842013 5.244178 9.103102 5.343125 20.284085 0.29684 29.387188-1.879988 3.463137-3.759977 6.926273-5.541018 10.488356-5.442072 10.68625-16.919896 16.919896-28.793507 16.128321-2.275775-0.197894-4.551551-0.395787-6.926273-0.395787-49.374432 0-89.447869 40.172384-89.447869 89.44787 0 11.27993 2.077882 22.164074 6.134699 32.553483 6.035752 15.336748-1.583148 32.553483-16.919896 38.589236-15.336748 5.936805-32.553483-1.583148-38.589236-16.919896-6.827326-17.117789-10.191516-35.323993-10.191516-54.02493 0-58.081747 33.444004-108.544594 82.12581-133.083389-2.869456-2.671562-5.639965-5.541018-8.311528-8.509422-22.757754-25.825104-33.641898-60.357522-29.684027-94.790994 6.332593-55.212291 50.95758-100.134119 106.070924-106.763552 28.298773-3.36419 55.904918 3.06735 78.860566 17.117789 0.098947-0.494734 0.197894-1.088414 0.296841-1.583148 7.717847-41.953425 42.745-75.100589 85.193159-80.641608 28.298773-3.66103 55.805972 4.254711 77.475311 22.361968 7.223113 6.035752 13.555706 13.060972 18.799884 20.778819 14.842014-22.757754 34.532419-42.448159 57.587013-57.191226C510.090028 11.477824 545.809808 0.989468 582.618002 0.989468c12.665185 0 25.33037 1.286308 37.698715 3.66103 28.100879 5.541018 54.02493 17.117789 76.980578 34.235578 39.182916 29.090347 65.601701 72.231133 74.407962 119.527684 16.128322-5.639965 33.740845-7.223113 51.353367-4.056817 41.953425 7.519954 75.298483 42.349212 81.037395 84.698425 2.869456 21.174606-0.989468 41.854479-10.191516 59.763842 2.275775 0.692627 4.551551 1.484201 6.827326 2.275775 41.953425 15.336748 73.022708 53.629143 78.959513 97.36361 6.332593 46.40603-13.753599 90.63523-49.869166 116.262441 54.02493 26.418784 87.666828 84.104744 83.115277 145.154894-5.541018 74.309015-65.898541 133.281283-140.306503 137.437047-22.065127 1.187361-43.63552-2.374722-64.018552-10.68625-0.890521-0.395787-2.275775-0.494734-3.06735 0.395787-1.286308 1.385255-0.989468 2.869456-0.395787 3.858924 17.810416 31.069282 24.241956 66.393275 18.601991 102.014107-4.650498 29.28824-17.71147 56.597546-37.896609 78.959513-5.837859 6.72838-13.951493 10.092569-22.065127 10.09257z" fill="#383F51" p-id="2701"></path></svg>