<?xml version="1.0" standalone="no"?><!DOCTYPE svg PUBLIC "-//W3C//DTD SVG 1.1//EN" "http://www.w3.org/Graphics/SVG/1.1/DTD/svg11.dtd"><svg t="1602244208814" class="icon" viewBox="0 0 1027 1024" version="1.1" xmlns="http://www.w3.org/2000/svg" p-id="1763" xmlns:xlink="http://www.w3.org/1999/xlink" width="200.5859375" height="200"><defs><style type="text/css"></style></defs><path d="M513.50045 986.7h-0.2c-211.5-0.1-383.5-172.2-383.4-383.7v-87.8c0-16 13-29 29-29s29 13 29 29V603c-0.1 179.5 145.9 325.5 325.3 325.6h0.2c36.7 0 72.7-6.1 107.1-18.2 15.1-5.4 31.7 2.6 37 17.8 5.3 15.1-2.6 31.7-17.8 37-40.5 14.3-83 21.5-126.2 21.5zM727.00045 914.7c-8.8 0-17.4-4-23.2-11.5-9.7-12.8-7.2-31 5.6-40.7 12.7-9.6 24.8-20.3 36-31.7 11.2-11.5 29.6-11.6 41.1-0.4 11.4 11.2 11.6 29.6 0.4 41.1-13.2 13.4-27.4 26-42.3 37.3-5.4 4-11.5 5.9-17.6 5.9zM842.30045 764.1c-3.6 0-7.3-0.7-10.9-2.1-14.9-6-22-22.9-16-37.8 15.6-38.5 23.5-79.2 23.5-120.9v-87.8c0-16 13-29 29-29s29 13 29 29v87.8c0 49.2-9.3 97.2-27.7 142.6-4.5 11.4-15.4 18.2-26.9 18.2zM738.10045 220.4l-449-0.2c-16 0-29-13-29-29s13-29 29-29l449 0.2c16 0 29 13 29 29s-13 29-29 29z" fill="#383F51" p-id="1764"></path><path d="M159.00045 544.3c-42.5 0-82.5-16.6-112.5-46.6S-0.09955 427.7 0.00045 385.2l0.1-149.4c0-43.6 17-84.6 47.8-115.4 30.8-30.8 71.8-47.8 115.3-47.8H260.10045c15.5 0 30.1 6 41 17s17 25.5 17 41l-0.1 254.7c0 87.7-71.3 159-159 159z m4.2-413.6c-28.1 0-54.4 10.9-74.3 30.8-19.9 19.8-30.8 46.2-30.8 74.3L58.00045 385.2c0 27 10.5 52.3 29.5 71.4 19.1 19.1 44.4 29.6 71.4 29.6 55.6 0 100.9-45.3 100.9-100.9l0.1-254.6h-96.7c0.1 0 0.1 0 0 0zM868.00045 544.6c-87.7 0-159-71.4-159-159.1 0-16 13-29 29-29s29 13 29 29c0 55.7 45.3 101 100.9 101 27 0 52.3-10.5 71.4-29.5 19.1-19.1 29.6-44.4 29.6-71.4l0.1-149.4c0-28.1-10.9-54.5-30.8-74.3-19.8-20-46.2-30.9-74.3-30.9h-96.8v139.6c0 16-13 29-29 29s-29-13-29-29l0.1-139.6c0-15.5 6-30.1 17-41 11-10.9 25.5-17 41-17H864.00045c43.6 0 84.6 17 115.4 47.8 30.8 30.8 47.8 71.8 47.8 115.4l-0.1 149.4c0 42.5-16.6 82.4-46.6 112.4-30.1 30-70 46.6-112.5 46.6zM614.50045 754.5c-29.3 0-56.8-11.4-77.6-31.9-20.7-20.6-32.1-48-32.1-77.2 0-8 6.5-14.5 14.5-14.5s14.5 6.5 14.5 14.5c0 21.4 8.4 41.4 23.6 56.5 15.2 15.1 35.5 23.5 57.1 23.5 44.5 0 80.6-35.9 80.7-80 0-8 6.5-14.5 14.5-14.5s14.5 6.5 14.5 14.5c-0.1 60.2-49.3 109.1-109.7 109.1z" fill="#383F51" p-id="1765"></path><path d="M424.20045 754.4c-0.1 0-0.1 0 0 0-29.3 0-56.8-11.4-77.5-31.9-20.7-20.6-32.1-48-32.1-77.2 0-8 6.5-14.5 14.5-14.5s14.5 6.5 14.5 14.5c0 21.4 8.4 41.4 23.6 56.5 15.2 15.1 35.5 23.5 57.1 23.5 44.5 0 80.6-35.9 80.6-80 0-8 6.5-14.5 14.5-14.5s14.5 6.5 14.5 14.5c-0.1 60.2-49.3 109.1-109.7 109.1z" fill="#383F51" p-id="1766"></path><path d="M523.90045 652.2c-13.7 0-26.6-5.3-36.2-15-9.7-9.7-15-22.6-15-36.2 0-28.2 23-51.2 51.3-51.2 28.3 0 51.2 23 51.2 51.3-0.1 28.1-23 51.1-51.3 51.1z m0-73.5c-12.2 0-22.2 10-22.2 22.2 0 5.9 2.3 11.5 6.5 15.7s9.8 6.5 15.7 6.5c12.2 0 22.2-10 22.2-22.2s-9.9-22.2-22.2-22.2z m-36.7 22.2z" fill="#383F51" p-id="1767"></path><path d="M419.00045 444.5m-23.6 0a23.6 23.6 0 1 0 47.2 0 23.6 23.6 0 1 0-47.2 0Z" fill="#383F51" p-id="1768"></path><path d="M608.00045 444.5m-23.6 0a23.6 23.6 0 1 0 47.2 0 23.6 23.6 0 1 0-47.2 0Z" fill="#383F51" p-id="1769"></path></svg>