<?xml version="1.0" standalone="no"?><!DOCTYPE svg PUBLIC "-//W3C//DTD SVG 1.1//EN" "http://www.w3.org/Graphics/SVG/1.1/DTD/svg11.dtd"><svg t="1602244202066" class="icon" viewBox="0 0 1024 1024" version="1.1" xmlns="http://www.w3.org/2000/svg" p-id="1608" xmlns:xlink="http://www.w3.org/1999/xlink" width="200" height="200"><defs><style type="text/css"></style></defs><path d="M595.1 916.3H430.8c-140.3 0-254.4-114.1-254.4-254.4s114.1-254.4 254.4-254.4h164.3c140.3 0 254.4 114.1 254.4 254.4 0 80-38.6 156.4-103.3 204.4-12.6 9.4-30.5 6.7-39.9-5.9-9.4-12.6-6.7-30.5 5.9-39.9 50.3-37.3 80.3-96.6 80.3-158.6 0-108.8-88.5-197.4-197.4-197.4H430.8c-108.8 0-197.4 88.5-197.4 197.4S322 859.3 430.8 859.3h164.3c15.7 0 28.5 12.8 28.5 28.5s-12.8 28.5-28.5 28.5z" fill="#383F51" p-id="1609"></path><path d="M913.4 947.1c-15.7 0-28.5-12.8-28.5-28.5 0-52.2-42.5-94.7-94.7-94.7-15.7 0-28.5-12.8-28.5-28.5s12.8-28.5 28.5-28.5c83.6 0 151.7 68 151.7 151.7 0 15.7-12.8 28.5-28.5 28.5zM995.5 864.9c-15.7 0-28.5-12.8-28.5-28.5 0-129.2-104.6-135.8-125.5-135.8-15.7 0-28.5-12.8-28.5-28.5s12.8-28.5 28.5-28.5c90.8 0 182.5 59.6 182.5 192.8 0 15.8-12.8 28.5-28.5 28.5zM112.5 947.1c-15.7 0-28.5-12.8-28.5-28.5 0-83.6 68.1-151.7 151.7-151.7 15.7 0 28.5 12.8 28.5 28.5s-12.8 28.5-28.5 28.5c-52.2 0-94.7 42.5-94.7 94.7 0 15.7-12.7 28.5-28.5 28.5zM30.4 864.9c-15.7 0-28.5-12.8-28.5-28.5 0-133.2 91.7-192.8 182.5-192.8 15.7 0 28.5 12.8 28.5 28.5s-12.8 28.5-28.5 28.5c-21 0-125.5 6.5-125.5 135.8 0 15.8-12.8 28.5-28.5 28.5zM266.6 505.6c-1.6 0-3.1-0.1-4.7-0.4-29.5-4.9-85.4-36.4-85.4-120.5 0-15.7 12.8-28.5 28.5-28.5s28.5 12.8 28.5 28.5c0 53.7 31.9 63.1 38.3 64.4 15.5 2.6 25.8 17.2 23.2 32.7-2.4 13.9-14.7 23.8-28.4 23.8z" fill="#383F51" p-id="1610"></path><path d="M199.8 398.1c-72.5 0-131.6-59-131.6-131.5S127.3 135 199.8 135c29.4 0 30.5 31.5 32 75.2 0.3 9.1 0.7 21.3 1.5 30 9.1-0.6 19.8-4.6 29.5-8.2 16.9-6.3 36.1-13.5 52.7-2 10.5 7.3 15.8 19.6 15.8 36.7 0 72.4-59 131.4-131.5 131.4z m-16.7-213.9c-38.4 7.8-67.3 41.8-67.3 82.4 0 46.3 37.7 84.1 84.1 84.1 43.5 0 79.5-33.3 83.7-75.7-1.4 0.5-2.8 1-4 1.5-19.1 7.1-45.4 16.9-72.1 7.4-20.7-7.3-21.5-30.3-22.9-72-0.5-7.9-0.9-18.9-1.5-27.7zM759.3 505.6c-13.7 0-25.8-9.9-28.1-23.8-2.6-15.4 7.7-29.9 23-32.7 6.6-1.4 38.2-10.9 38.2-64.4 0-15.7 12.8-28.5 28.5-28.5s28.5 12.8 28.5 28.5c0 84.1-55.9 115.6-85.4 120.5-1.5 0.2-3.1 0.4-4.7 0.4z" fill="#383F51" p-id="1611"></path><path d="M826.1 398.1c-72.5 0-131.5-59-131.5-131.5 0-17 5.3-29.4 15.8-36.7 16.5-11.5 35.7-4.3 52.7 2 4.5 1.7 9.3 3.5 14.2 5 12.5 3.9 19.5 17.2 15.6 29.7-3.9 12.5-17.2 19.5-29.7 15.6-5.8-1.8-11.4-3.9-16.7-5.9-1.3-0.5-2.6-1-4-1.5 4.2 42.5 40.1 75.7 83.7 75.7 46.4 0 84.1-37.7 84.1-84.1 0-40.6-29-74.6-67.3-82.4-0.7 8.7-1 19.6-1.3 26.7-0.4 13.1-11.4 23.3-24.5 22.9-13.1-0.4-23.4-11.4-22.9-24.5 1.4-41.5 2.6-74.3 32-74.3 72.5 0 131.6 59 131.6 131.6s-59.3 131.7-131.8 131.7z" fill="#383F51" p-id="1612"></path><path d="M441.1 384.7m-51.3 0a51.3 51.3 0 1 0 102.6 0 51.3 51.3 0 1 0-102.6 0Z" fill="#383F51" p-id="1613"></path><path d="M595.1 384.7m-51.3 0a51.3 51.3 0 1 0 102.6 0 51.3 51.3 0 1 0-102.6 0Z" fill="#383F51" p-id="1614"></path><path d="M507.8 768.5c-56.9 0-101.5-33.3-101.5-75.9 0-7.9 6.4-14.2 14.2-14.2s14.2 6.4 14.2 14.2c0 25.7 33.4 47.4 73 47.4s73-21.7 73-47.4c0-7.9 6.4-14.2 14.2-14.2s14.2 6.4 14.2 14.2c0.2 42.6-44.4 75.9-101.3 75.9z" fill="#383F51" p-id="1615"></path></svg>