<?xml version="1.0" standalone="no"?><!DOCTYPE svg PUBLIC "-//W3C//DTD SVG 1.1//EN" "http://www.w3.org/Graphics/SVG/1.1/DTD/svg11.dtd"><svg t="1602244195257" class="icon" viewBox="0 0 1024 1024" version="1.1" xmlns="http://www.w3.org/2000/svg" p-id="1456" xmlns:xlink="http://www.w3.org/1999/xlink" width="200" height="200"><defs><style type="text/css"></style></defs><path d="M400.913896 317.834422m-52.72277 0a52.722769 52.722769 0 1 0 105.445539 0 52.722769 52.722769 0 1 0-105.445539 0Z" fill="#383F51" p-id="1457"></path><path d="M622.389469 317.834422m-52.72277 0a52.722769 52.722769 0 1 0 105.445539 0 52.722769 52.722769 0 1 0-105.445539 0Z" fill="#383F51" p-id="1458"></path><path d="M852.352608 744.50941c-17.474403 0-31.653632-14.17923-31.653632-31.653632V372.254705c0-170.350463-138.596977-308.94744-309.047294-308.94744-70.996002 0-140.394344 24.963432-195.513603 70.297026-13.480254 11.083764-33.451 9.186543-44.534764-4.393565-11.083764-13.480254-9.186543-33.451 4.393565-44.534763 66.40273-54.61999 150.080156-84.675963 235.654802-84.675963 205.299269 0 372.254705 166.955436 372.254705 372.254705v340.601073c0.099854 17.474403-14.079376 31.653632-31.553779 31.653632zM171.050609 744.50941c-17.474403 0-31.653632-14.17923-31.653632-31.653632V372.254705c0-60.810922 15.177767-121.322282 43.935641-174.843881 8.28786-15.377474 27.459776-21.168991 42.83725-12.980985 15.377474 8.28786 21.168991 27.459776 12.980985 42.83725-23.765188 44.43491-36.446611 94.561482-36.446611 144.987616v340.601073c0 17.474403-14.17923 31.653632-31.653633 31.653632z" fill="#383F51" p-id="1459"></path><path d="M178.739347 961.291858c-98.555631 0-178.738176-80.182545-178.738177-178.738177V635.469137c0-17.474403 14.17923-31.653632 31.653633-31.653632s31.653632 14.17923 31.653632 31.653632v147.084544c0 63.606826 51.824086 115.430912 115.430912 115.430912 17.474403 0 31.653632 14.17923 31.653632 31.653632s-14.17923 31.653632-31.653632 31.653633zM281.588688 919.153584c-8.188006 0-16.376012-3.195319-22.566943-9.486105-12.282009-12.481716-12.082301-32.552316 0.399415-44.734471 22.367235-21.967821 34.749098-51.224963 34.749098-82.279473V635.469137c0-17.474403 14.17923-31.653632 31.653633-31.653632s31.653632 14.17923 31.653632 31.653632v147.084544c0 48.229352-19.072062 93.463091-53.721307 127.513213-6.091078 5.991224-14.17923 9.086689-22.167528 9.08669zM844.564018 961.291858c-98.555631 0-178.738176-80.182545-178.738177-178.738177V635.469137c0-17.474403 14.17923-31.653632 31.653632-31.653632s31.653632 14.17923 31.653633 31.653632v147.084544c0 63.606826 51.824086 115.430912 115.430912 115.430912S959.994929 846.260361 959.994929 782.553681V635.469137c0-17.474403 14.17923-31.653632 31.653633-31.653632s31.653632 14.17923 31.653632 31.653632v147.084544c0 98.555631-80.182545 178.738176-178.738176 178.738177zM511.651682 945.814529c-17.474403 0-31.653632-14.17923-31.653632-31.653632V619.991809c0-17.474403 14.17923-31.653632 31.653632-31.653633s31.653632 14.17923 31.653632 31.653633V914.160897c0 17.474403-14.17923 31.653632-31.653632 31.653632z" fill="#383F51" p-id="1460"></path></svg>