<?xml version="1.0" standalone="no"?><!DOCTYPE svg PUBLIC "-//W3C//DTD SVG 1.1//EN" "http://www.w3.org/Graphics/SVG/1.1/DTD/svg11.dtd"><svg t="1602838534450" class="icon" viewBox="0 0 1024 1024" version="1.1" xmlns="http://www.w3.org/2000/svg" p-id="9594" xmlns:xlink="http://www.w3.org/1999/xlink" width="200" height="200"><defs><style type="text/css"></style></defs><path d="M472.615385 590.769231L315.076923 433.230769h315.076923z" fill="#BFBFBF" p-id="9595"></path><path d="M472.615385 858.584615c-17.329231 0-31.507692-14.178462-31.507693-31.507692V590.769231c0-17.329231 14.178462-31.507692 31.507693-31.507693s31.507692 14.178462 31.507692 31.507693v236.307692c0 17.329231-14.178462 31.507692-31.507692 31.507692z" fill="#7F7F7F" p-id="9596"></path><path d="M472.615385 622.276923c-7.876923 0-15.753846-3.150769-22.055385-9.452308l-315.076923-315.076923c-8.664615-8.664615-11.815385-22.843077-7.089231-34.658461 4.726154-11.027692 16.541538-18.904615 29.144616-18.904616h630.153846c12.603077 0 24.418462 7.876923 29.144615 19.692308 4.726154 11.815385 2.363077 25.206154-7.089231 34.658462l-315.076923 315.076923C488.369231 619.126154 480.492308 622.276923 472.615385 622.276923zM233.944615 307.2L472.615385 545.870769 711.286154 307.2H233.944615z" fill="#7F7F7F" p-id="9597"></path><path d="M472.615385 827.076923l157.538461 78.769231H315.076923z" fill="#808080" p-id="9598"></path><path d="M630.153846 937.353846H315.076923c-14.966154 0-27.569231-10.24-30.72-24.418461-3.150769-14.178462 3.150769-29.144615 16.541539-35.446154l157.538461-78.769231c8.664615-4.726154 19.692308-4.726154 28.356923 0l157.538462 78.769231c13.390769 6.301538 19.692308 21.267692 16.541538 35.446154-3.150769 14.178462-15.753846 24.418462-30.72 24.418461z m-181.956923-63.015384H496.246154l-24.418462-11.815385-23.630769 11.815385zM393.846154 307.2c-13.390769 0-25.206154-7.876923-29.932308-21.267692l-47.261538-136.27077H157.538462c-17.329231 0-31.507692-14.178462-31.507693-31.507692s14.178462-31.507692 31.507693-31.507692h181.16923c13.390769 0 25.206154 8.664615 29.932308 21.267692l55.138462 157.538462c5.513846 16.541538-3.150769 34.658462-19.692308 40.172307-3.150769 0.787692-7.089231 1.575385-10.24 1.575385z" fill="#7F7F7F" p-id="9599"></path><path d="M787.692308 275.692308m-78.769231 0a78.769231 78.769231 0 1 0 157.538461 0 78.769231 78.769231 0 1 0-157.538461 0Z" fill="#BFBFBF" p-id="9600"></path><path d="M787.692308 385.969231c-60.652308 0-110.276923-49.624615-110.276923-110.276923s49.624615-110.276923 110.276923-110.276923 110.276923 49.624615 110.276923 110.276923-49.624615 110.276923-110.276923 110.276923z m0-157.538462c-25.993846 0-47.261538 21.267692-47.261539 47.261539s21.267692 47.261538 47.261539 47.261538 47.261538-21.267692 47.261538-47.261538-21.267692-47.261538-47.261538-47.261539z" fill="#7F7F7F" p-id="9601"></path></svg>