<?xml version="1.0" standalone="no"?><!DOCTYPE svg PUBLIC "-//W3C//DTD SVG 1.1//EN" "http://www.w3.org/Graphics/SVG/1.1/DTD/svg11.dtd"><svg t="1601646304794" class="icon" viewBox="0 0 1024 1024" version="1.1" xmlns="http://www.w3.org/2000/svg" p-id="12029" xmlns:xlink="http://www.w3.org/1999/xlink" width="200" height="200"><defs><style type="text/css"></style></defs><path d="M889.1904 323.2256h-105.0112l-17.3056-109.4656c-7.1168-45.056-45.4144-77.7728-91.0336-77.7728H353.3824c-45.6192 0-83.9168 32.7168-91.0336 77.7728l-17.3056 109.4656H140.032c-33.9456 0-61.44 27.4944-61.44 61.44v492.8512c0 33.9456 27.4944 61.44 61.44 61.44h749.1584c33.9456 0 61.44-27.4944 61.44-61.44V384.6656c0-33.9456-27.4944-61.44-61.44-61.44z m-253.2352 332.9024h-90.624v90.624c0 16.9472-13.7728 30.72-30.72 30.72s-30.72-13.7728-30.72-30.72v-90.624h-90.624c-16.9472 0-30.72-13.7728-30.72-30.72s13.7728-30.72 30.72-30.72h90.624v-90.624c0-16.9472 13.7728-30.72 30.72-30.72s30.72 13.7728 30.72 30.72v90.624h90.624c16.9472 0 30.72 13.7728 30.72 30.72s-13.7216 30.72-30.72 30.72z m-328.704-332.9024l15.7696-99.8912a30.58688 30.58688 0 0 1 30.3616-25.9072H675.84c15.2064 0 27.9552 10.9056 30.3616 25.9072l15.7696 99.8912h-414.72z" fill="#9191E2" p-id="12030"></path></svg>